<?xml version="1.0" ?><!-- Uploaded to: SVG Repo, www.svgrepo.com, Generator: SVG Repo Mixer Tools -->
<svg fill="#000000" width="800px" height="800px" viewBox="0 0 64 64" xmlns="http://www.w3.org/2000/svg"><title/><path d="M32,60a16.3,16.3,0,0,1-10.71-4.29c-1.08-1.08-2.05-1-4-.85A23,23,0,0,1,15,55c-2.54,0-3.88-1.23-4-3.65a27,27,0,0,0-3.36-1.41C4.34,48.7,3,48.15,3,47s1-1.44,2.73-2.08c2.19-.83,5.51-2.07,7.6-4.78a13.53,13.53,0,0,0,2.39-5.86A38.77,38.77,0,0,1,9.93,32a3,3,0,0,1,2.74-5.34A32,32,0,0,0,16,28V21a16,16,0,0,1,32,0v7a32.14,32.14,0,0,0,3.33-1.38A3,3,0,0,1,54.07,32a38.77,38.77,0,0,1-5.8,2.28,13.53,13.53,0,0,0,2.39,5.86c2.09,2.71,5.4,4,7.6,4.78C60,45.56,61,46,61,47s-1.34,1.7-4.65,2.94A27,27,0,0,0,53,51.35C52.88,53.77,51.54,55,49,55a23,23,0,0,1-2.31-.14c-1.92-.19-2.9-.23-4,.85A16.3,16.3,0,0,1,32,60ZM18.88,52.75a5,5,0,0,1,3.83,1.54A14.35,14.35,0,0,0,32,58a14.35,14.35,0,0,0,9.29-3.71c1.8-1.8,3.64-1.62,5.59-1.43.67.07,1.36.13,2.12.13,2,0,2-1,2-2s1.34-1.7,4.65-2.94c.79-.29,1.83-.68,2.58-1l-.67-.25c-2.26-.85-6-2.27-8.48-5.43h0a15.88,15.88,0,0,1-2.92-7.66,1,1,0,0,1,.71-1.09,38.19,38.19,0,0,0,6.28-2.39,1,1,0,0,0-.92-1.78,36,36,0,0,1-4.94,1.95,1,1,0,0,1-1.3-1V21a14,14,0,0,0-28,0v8.43a1,1,0,0,1-1.3,1,35.93,35.93,0,0,1-4.93-1.94,1,1,0,0,0-1.36.43,1,1,0,0,0,.43,1.35,38.19,38.19,0,0,0,6.28,2.39,1,1,0,0,1,.71,1.09,15.88,15.88,0,0,1-2.92,7.66c-2.44,3.16-6.22,4.58-8.48,5.43L5.77,47c.75.33,1.79.72,2.58,1C11.66,49.3,13,49.85,13,51s0,2,2,2c.75,0,1.45-.07,2.12-.13S18.3,52.75,18.88,52.75Zm40.31-5.26h0Z"/></svg>